<mxfile host="Electron" agent="Mozilla/5.0 (Windows NT 10.0; Win64; x64) AppleWebKit/537.36 (KHTML, like Gecko) draw.io/24.7.5 Chrome/126.0.6478.183 Electron/31.3.0 Safari/537.36" version="24.7.5">
  <diagram name="Page-1" id="55a83fd1-7818-8e21-69c5-c3457e3827bb">
    <mxGraphModel dx="1092" dy="798" grid="1" gridSize="10" guides="1" tooltips="1" connect="1" arrows="1" fold="1" page="1" pageScale="1" pageWidth="1100" pageHeight="850" background="none" math="0" shadow="0">
      <root>
        <mxCell id="0" />
        <mxCell id="1" parent="0" />
        <mxCell id="69ecfefc5c41e42c-18" style="edgeStyle=none;rounded=0;html=1;labelBackgroundColor=none;endArrow=none;strokeWidth=3;fontFamily=Verdana;fontSize=22;entryX=0.5;entryY=1;entryDx=0;entryDy=0;fontColor=#D79B00;fillColor=#ffcd28;gradientColor=#ffa500;strokeColor=#d79b00;" parent="1" source="69ecfefc5c41e42c-1" target="hUI2fntKfAsAR92i1NSp-4" edge="1">
          <mxGeometry relative="1" as="geometry" />
        </mxCell>
        <mxCell id="69ecfefc5c41e42c-1" value="" style="image;html=1;labelBackgroundColor=#ffffff;image=img/lib/clip_art/networking/Wireless_Router_128x128.png;rounded=1;shadow=0;comic=0;strokeWidth=2;fontSize=22" parent="1" vertex="1">
          <mxGeometry x="470" y="465" width="80" height="80" as="geometry" />
        </mxCell>
        <mxCell id="69ecfefc5c41e42c-19" style="edgeStyle=none;rounded=0;html=1;labelBackgroundColor=none;endArrow=none;strokeWidth=5;fontFamily=Verdana;fontSize=22;exitX=0.5;exitY=0;exitDx=0;exitDy=0;entryX=0.5;entryY=1;entryDx=0;entryDy=0;fillColor=#dae8fc;gradientColor=#7ea6e0;strokeColor=#6c8ebf;" parent="1" source="hUI2fntKfAsAR92i1NSp-4" target="hUI2fntKfAsAR92i1NSp-6" edge="1">
          <mxGeometry relative="1" as="geometry">
            <mxPoint x="510" y="220" as="targetPoint" />
          </mxGeometry>
        </mxCell>
        <mxCell id="69ecfefc5c41e42c-4" value="Tablet" style="image;html=1;labelBackgroundColor=#ffffff;image=img/lib/clip_art/computers/iPad_128x128.png;rounded=1;shadow=0;comic=0;strokeWidth=2;fontSize=20;fontFamily=Noto Sans;fontSource=https%3A%2F%2Ffonts.googleapis.com%2Fcss%3Ffamily%3DNoto%2BSans;aspect=fixed;" parent="1" vertex="1">
          <mxGeometry x="480" y="700" width="60" height="60" as="geometry" />
        </mxCell>
        <mxCell id="69ecfefc5c41e42c-5" value="desktop" style="image;html=1;labelBackgroundColor=#ffffff;image=img/lib/clip_art/computers/Monitor_Tower_128x128.png;rounded=1;shadow=0;comic=0;strokeWidth=2;fontSize=20;fontFamily=Noto Sans;fontSource=https%3A%2F%2Ffonts.googleapis.com%2Fcss%3Ffamily%3DNoto%2BSans;aspect=fixed;" parent="1" vertex="1">
          <mxGeometry x="260" y="290" width="100" height="100" as="geometry" />
        </mxCell>
        <mxCell id="69ecfefc5c41e42c-6" value="printer" style="image;html=1;labelBackgroundColor=#ffffff;image=img/lib/clip_art/computers/Printer_128x128.png;rounded=1;shadow=0;comic=0;strokeWidth=2;fontSize=20;fontFamily=Noto Sans;fontSource=https%3A%2F%2Ffonts.googleapis.com%2Fcss%3Ffamily%3DNoto%2BSans;aspect=fixed;" parent="1" vertex="1">
          <mxGeometry x="280" y="610" width="100" height="100" as="geometry" />
        </mxCell>
        <mxCell id="69ecfefc5c41e42c-7" value="desktop" style="image;html=1;labelBackgroundColor=#ffffff;image=img/lib/clip_art/computers/Workstation_128x128.png;rounded=1;shadow=0;comic=0;strokeWidth=2;fontSize=20;fontFamily=Noto Sans;fontSource=https%3A%2F%2Ffonts.googleapis.com%2Fcss%3Ffamily%3DNoto%2BSans;" parent="1" vertex="1">
          <mxGeometry x="600" y="660" width="100" height="100" as="geometry" />
        </mxCell>
        <mxCell id="69ecfefc5c41e42c-8" value="smartphone" style="image;html=1;labelBackgroundColor=#ffffff;image=img/lib/clip_art/telecommunication/iPhone_128x128.png;rounded=1;shadow=0;comic=0;strokeWidth=2;fontSize=20;fontFamily=Noto Sans;fontSource=https%3A%2F%2Ffonts.googleapis.com%2Fcss%3Ffamily%3DNoto%2BSans;aspect=fixed;" parent="1" vertex="1">
          <mxGeometry x="687.5" y="565" width="40" height="40" as="geometry" />
        </mxCell>
        <mxCell id="69ecfefc5c41e42c-9" value="laptop" style="image;html=1;labelBackgroundColor=#ffffff;image=img/lib/clip_art/computers/Netbook_128x128.png;rounded=1;shadow=0;comic=0;strokeColor=#000000;strokeWidth=2;fillColor=#FFFFFF;fontSize=20;fontColor=#000000;fontFamily=Noto Sans;fontSource=https%3A%2F%2Ffonts.googleapis.com%2Fcss%3Ffamily%3DNoto%2BSans;aspect=fixed;" parent="1" vertex="1">
          <mxGeometry x="657.5" y="390" width="100" height="100" as="geometry" />
        </mxCell>
        <mxCell id="69ecfefc5c41e42c-10" value="laptop" style="image;html=1;labelBackgroundColor=#ffffff;image=img/lib/clip_art/computers/Netbook_128x128.png;rounded=1;shadow=0;comic=0;strokeWidth=2;fontSize=20;fontFamily=Noto Sans;fontSource=https%3A%2F%2Ffonts.googleapis.com%2Fcss%3Ffamily%3DNoto%2BSans;aspect=fixed;" parent="1" vertex="1">
          <mxGeometry x="160" y="430" width="100" height="100" as="geometry" />
        </mxCell>
        <mxCell id="hUI2fntKfAsAR92i1NSp-1" value="" style="endArrow=none;html=1;rounded=0;entryX=0;entryY=0.75;entryDx=0;entryDy=0;exitX=1;exitY=0.5;exitDx=0;exitDy=0;curved=1;fillColor=#ffcd28;gradientColor=#ffa500;strokeColor=#d79b00;strokeWidth=3;" edge="1" parent="1" source="69ecfefc5c41e42c-5" target="69ecfefc5c41e42c-1">
          <mxGeometry width="50" height="50" relative="1" as="geometry">
            <mxPoint x="500" y="620" as="sourcePoint" />
            <mxPoint x="550" y="570" as="targetPoint" />
          </mxGeometry>
        </mxCell>
        <mxCell id="hUI2fntKfAsAR92i1NSp-2" value="" style="endArrow=none;html=1;rounded=0;curved=1;entryX=0;entryY=1;entryDx=0;entryDy=0;exitX=1;exitY=0.5;exitDx=0;exitDy=0;strokeWidth=3;fillColor=#ffcd28;gradientColor=#ffa500;strokeColor=#d79b00;" edge="1" parent="1" source="69ecfefc5c41e42c-10" target="69ecfefc5c41e42c-1">
          <mxGeometry width="50" height="50" relative="1" as="geometry">
            <mxPoint x="280" y="700" as="sourcePoint" />
            <mxPoint x="480" y="530" as="targetPoint" />
          </mxGeometry>
        </mxCell>
        <mxCell id="hUI2fntKfAsAR92i1NSp-4" value="" style="image;html=1;image=img/lib/clip_art/networking/Modem_128x128.png;verticalAlign=middle;horizontal=1;spacingTop=-46;spacing=3;" vertex="1" parent="1">
          <mxGeometry x="470" y="265" width="80" height="80" as="geometry" />
        </mxCell>
        <mxCell id="hUI2fntKfAsAR92i1NSp-5" value="&lt;font style=&quot;font-size: 20px;&quot; data-font-src=&quot;https://fonts.googleapis.com/css?family=Noto+Sans&quot; face=&quot;Noto Sans&quot;&gt;modem&lt;/font&gt;" style="text;html=1;align=center;verticalAlign=middle;whiteSpace=wrap;rounded=0;" vertex="1" parent="1">
          <mxGeometry x="560" y="290" width="60" height="30" as="geometry" />
        </mxCell>
        <mxCell id="hUI2fntKfAsAR92i1NSp-6" value="" style="image;aspect=fixed;perimeter=ellipsePerimeter;html=1;align=center;shadow=0;dashed=0;spacingTop=3;image=img/lib/active_directory/internet_cloud.svg;" vertex="1" parent="1">
          <mxGeometry x="455" y="50" width="110" height="69.3" as="geometry" />
        </mxCell>
        <mxCell id="hUI2fntKfAsAR92i1NSp-7" value="Internet" style="text;html=1;align=center;verticalAlign=middle;whiteSpace=wrap;rounded=0;fontSize=20;fontFamily=Noto Sans;fontSource=https%3A%2F%2Ffonts.googleapis.com%2Fcss%3Ffamily%3DNoto%2BSans;" vertex="1" parent="1">
          <mxGeometry x="582.43" y="69.65" width="60" height="30" as="geometry" />
        </mxCell>
        <mxCell id="hUI2fntKfAsAR92i1NSp-12" value="" style="html=1;verticalLabelPosition=bottom;align=center;labelBackgroundColor=#ffffff;verticalAlign=top;strokeWidth=2;strokeColor=#82b366;shadow=0;dashed=0;shape=mxgraph.ios7.icons.wifi;pointerEvents=1;fillColor=#d5e8d4;gradientColor=#97d077;rotation=60;" vertex="1" parent="1">
          <mxGeometry x="547.5699999999999" y="450" width="84.86" height="60" as="geometry" />
        </mxCell>
        <mxCell id="hUI2fntKfAsAR92i1NSp-14" value="" style="html=1;verticalLabelPosition=bottom;align=center;labelBackgroundColor=#ffffff;verticalAlign=top;strokeWidth=2;strokeColor=#82b366;shadow=0;dashed=0;shape=mxgraph.ios7.icons.wifi;pointerEvents=1;fillColor=#d5e8d4;gradientColor=#97d077;rotation=120;" vertex="1" parent="1">
          <mxGeometry x="570" y="540" width="84.86" height="60" as="geometry" />
        </mxCell>
        <mxCell id="hUI2fntKfAsAR92i1NSp-15" value="" style="html=1;verticalLabelPosition=bottom;align=center;labelBackgroundColor=#ffffff;verticalAlign=top;strokeWidth=2;strokeColor=#82b366;shadow=0;dashed=0;shape=mxgraph.ios7.icons.wifi;pointerEvents=1;fillColor=#d5e8d4;gradientColor=#97d077;rotation=-180;" vertex="1" parent="1">
          <mxGeometry x="467.57" y="610" width="84.86" height="60" as="geometry" />
        </mxCell>
        <mxCell id="hUI2fntKfAsAR92i1NSp-16" value="" style="html=1;verticalLabelPosition=bottom;align=center;labelBackgroundColor=#ffffff;verticalAlign=top;strokeWidth=2;strokeColor=#82b366;shadow=0;dashed=0;shape=mxgraph.ios7.icons.wifi;pointerEvents=1;fillColor=#d5e8d4;gradientColor=#97d077;rotation=-135;" vertex="1" parent="1">
          <mxGeometry x="380" y="555" width="84.86" height="60" as="geometry" />
        </mxCell>
        <mxCell id="hUI2fntKfAsAR92i1NSp-17" value="&lt;font style=&quot;font-size: 20px;&quot;&gt;wiresless router&lt;/font&gt;" style="text;html=1;align=center;verticalAlign=middle;whiteSpace=wrap;rounded=0;" vertex="1" parent="1">
          <mxGeometry x="475.14" y="555" width="104.86" height="30" as="geometry" />
        </mxCell>
        <mxCell id="hUI2fntKfAsAR92i1NSp-20" value="&lt;font style=&quot;font-size: 20px;&quot; data-font-src=&quot;https://fonts.googleapis.com/css?family=Noto+Sans&quot; face=&quot;Noto Sans&quot;&gt;RJ45 cable&lt;/font&gt;" style="text;html=1;align=center;verticalAlign=middle;whiteSpace=wrap;rounded=0;fontColor=#D79B00;rotation=15;" vertex="1" parent="1">
          <mxGeometry x="280" y="510" width="100" height="30" as="geometry" />
        </mxCell>
        <mxCell id="hUI2fntKfAsAR92i1NSp-21" value="&lt;font style=&quot;font-size: 20px;&quot; data-font-src=&quot;https://fonts.googleapis.com/css?family=Noto+Sans&quot; face=&quot;Noto Sans&quot;&gt;RJ45 cable&lt;/font&gt;" style="text;html=1;align=center;verticalAlign=middle;whiteSpace=wrap;rounded=0;fontColor=#D79B00;rotation=60;" vertex="1" parent="1">
          <mxGeometry x="355" y="435" width="100" height="30" as="geometry" />
        </mxCell>
        <mxCell id="hUI2fntKfAsAR92i1NSp-22" value="&lt;font style=&quot;font-size: 20px;&quot;&gt;sóng WiFi&lt;/font&gt;" style="text;html=1;align=center;verticalAlign=middle;whiteSpace=wrap;rounded=0;fontColor=#82B366;rotation=60;" vertex="1" parent="1">
          <mxGeometry x="330" y="600" width="110" height="30" as="geometry" />
        </mxCell>
        <mxCell id="hUI2fntKfAsAR92i1NSp-23" value="&lt;font style=&quot;font-size: 20px;&quot; data-font-src=&quot;https://fonts.googleapis.com/css?family=Noto+Sans&quot; face=&quot;Noto Sans&quot;&gt;RJ45 cable&lt;/font&gt;" style="text;html=1;align=center;verticalAlign=middle;whiteSpace=wrap;rounded=0;fontColor=#D79B00;rotation=90;" vertex="1" parent="1">
          <mxGeometry x="480" y="390" width="100" height="30" as="geometry" />
        </mxCell>
        <mxCell id="hUI2fntKfAsAR92i1NSp-24" value="fiber cable" style="text;html=1;align=center;verticalAlign=middle;whiteSpace=wrap;rounded=0;fontSize=20;fontFamily=Noto Sans;fontSource=https%3A%2F%2Ffonts.googleapis.com%2Fcss%3Ffamily%3DNoto%2BSans;rotation=90;fontColor=#6C8EBF;" vertex="1" parent="1">
          <mxGeometry x="467.57" y="180" width="140" height="30" as="geometry" />
        </mxCell>
      </root>
    </mxGraphModel>
  </diagram>
</mxfile>
